# xmcd CD database file
#
# Track frame offsets:
#	150
#	19126
#	32044
#	54726
#	66433
#	81652
#	98074
#	117013
#
# Disc length: 1774 seconds
#
# Revision: 12
# Processed by: cddbd v1.5.2PL0 Copyright (c) Steve Scherf et al.
# Submitted via: CDex 1.70beta2
#
DISCID=6a06ec08
DTITLE=Claustrofonia - Obrigado e Volte Sempre
DYEAR=2008
DGENRE=Jazz
TTITLE0=Essa canção começa assim
TTITLE1=Floricultura
TTITLE2=No meu tempo
TTITLE3=Ode às reticências
TTITLE4=Biografia
TTITLE5=CIC, RG e Certidão de Casamento
TTITLE6=Clichê
TTITLE7=Noite
EXTD=YEAR: 2008
EXTT0=
EXTT1=
EXTT2=
EXTT3=
EXTT4=
EXTT5=
EXTT6=
EXTT7=
PLAYORDER=
